<svg width="68" height="68" viewBox="0 0 68 68" fill="none" xmlns="http://www.w3.org/2000/svg">
<g id="Links" filter="url(#filter0_d_10_144)">
<path d="M36.5983 34.8486L30.5979 40.8472C30.5998 40.9168 30.6016 40.9865 30.6016 41.0559C30.6016 42.041 30.4148 43.0225 30.043 43.9417C29.6677 44.8573 29.1147 45.7178 28.3585 46.4686L24.4125 50.42C23.6563 51.1745 22.7993 51.7274 21.8802 52.101C20.9593 52.4746 19.9796 52.6613 18.9964 52.6613C18.0149 52.6613 17.0335 52.4745 16.1143 52.1046C15.195 51.7274 14.3382 51.1744 13.5801 50.42C12.8256 49.6656 12.2727 48.8087 11.8991 47.8895C11.5255 46.9703 11.3389 45.9888 11.3389 45.0038C11.3389 44.0223 11.5257 43.0409 11.8991 42.1216C12.2726 41.2024 12.8256 40.3455 13.5801 39.5875L17.5315 35.6397C18.286 34.8889 19.141 34.3323 20.0621 33.9587C20.9794 33.5851 21.9627 33.3984 22.9442 33.3984C23.0138 33.3984 23.0834 33.4021 23.1511 33.4058L29.1515 27.4018C28.9647 27.3158 28.7761 27.2352 28.5838 27.1583C26.7766 26.4259 24.8595 26.0597 22.9442 26.0597C21.0289 26.0597 19.1099 26.4259 17.3045 27.1583C15.4973 27.8907 13.7999 28.9968 12.3406 30.4506L8.39277 34.402C6.9352 35.8559 5.83117 37.5551 5.09875 39.3642C4.36633 41.1734 4 43.0884 4 45.0036C4 46.9188 4.36621 48.8379 5.09863 50.6469C5.83105 52.4523 6.9352 54.1515 8.39266 55.6055C9.84836 57.0667 11.5476 58.1726 13.3548 58.9014C15.164 59.6374 17.0811 60 18.9964 60C20.9134 60 22.8306 59.6374 24.6379 58.9014C26.4452 58.1726 28.1444 57.0667 29.6001 55.6055L33.5496 51.6614C35.0054 50.2002 36.1095 48.5046 36.8437 46.6992C37.578 44.8865 37.9404 42.9711 37.9423 41.0559C37.9404 39.1443 37.578 37.2253 36.8437 35.4127C36.7649 35.2259 36.6825 35.0354 36.5983 34.8486Z" fill="#FEFFCB"/>
<path d="M62.9014 9.35672C62.169 7.54758 61.0648 5.84836 59.6073 4.39277C58.1516 2.93707 56.4524 1.83117 54.6434 1.09875C52.836 0.366211 50.9189 0 49.0036 0C47.0883 0 45.1694 0.366211 43.3621 1.09863C41.5548 1.83105 39.8556 2.93707 38.3999 4.39266L34.4504 8.34223C32.9948 9.79617 31.8906 11.4954 31.1563 13.3044C30.422 15.1098 30.0596 17.0288 30.0596 18.9459C30.0596 20.8613 30.4221 22.7783 31.1563 24.5875C31.2351 24.7779 31.3156 24.9647 31.4017 25.1532L37.4021 19.1529C37.4002 19.0852 37.3984 19.0174 37.3984 18.9459C37.3984 17.9626 37.5852 16.9794 37.9587 16.0621C38.3323 15.1429 38.8852 14.286 39.6414 13.5279L43.5873 9.58008C44.3436 8.82938 45.2006 8.27449 46.1215 7.89914C47.0371 7.5293 48.0203 7.33887 49.0036 7.33887C49.9887 7.33887 50.9665 7.5293 51.8894 7.89914C52.805 8.27449 53.6637 8.82938 54.4199 9.58008C55.1744 10.3382 55.7273 11.195 56.1009 12.1143C56.4707 13.0335 56.6611 14.0149 56.6611 14.9964C56.6611 15.9797 56.4707 16.9593 56.1009 17.8821C55.7273 18.8013 55.1744 19.6582 54.4199 20.4127L50.4721 24.3605C49.7177 25.1149 48.8589 25.6678 47.9379 26.0414C47.0206 26.415 46.0391 26.6017 45.0558 26.6017C44.9862 26.6017 44.9166 26.5998 44.8489 26.598L38.8485 32.6003C39.0353 32.6845 39.2239 32.7669 39.4125 32.842C41.2234 33.5781 43.1406 33.9443 45.0558 33.9443C46.971 33.9443 48.8901 33.5781 50.6955 32.842C52.5027 32.1096 54.2001 31.0055 55.6594 29.5498L59.6072 25.6002C61.0648 24.1445 62.1688 22.4453 62.9013 20.6363C63.6337 18.8309 63.9999 16.9119 63.9999 14.9966C63.9999 13.0813 63.6338 11.1621 62.9014 9.35672Z" fill="#FEFFCB"/>
<path d="M22.7757 41.2243C24.2093 42.6599 26.533 42.6599 27.9648 41.2243L45.2243 23.9648C46.6562 22.5329 46.6599 20.2112 45.2243 18.7757C43.7907 17.3438 41.467 17.3438 40.0352 18.7757L22.7757 36.0388C21.3437 37.4707 21.3437 39.7925 22.7757 41.2243Z" fill="#FEFFCB"/>
<path d="M30.5066 44.1291L30.5057 44.1313C30.1064 45.1053 29.5172 46.0226 28.7112 46.8229C28.7111 46.8231 28.7109 46.8233 28.7108 46.8234L24.7663 50.7734L24.7657 50.774C23.9612 51.5766 23.0478 52.1661 22.0685 52.5642L22.0682 52.5643C21.0864 52.9626 20.0428 53.1613 18.9964 53.1613C17.9518 53.1613 16.9069 52.9625 15.9276 52.5685L15.9244 52.5672C14.9462 52.1657 14.0335 51.5766 13.2274 50.7745L13.2265 50.7736C12.4235 49.9706 11.834 49.0571 11.4359 48.0778C11.0375 47.0974 10.8389 46.0519 10.8389 45.0038C10.8389 43.9591 11.0377 42.9137 11.4359 41.9334C11.8339 40.9539 12.4235 40.0408 13.2257 39.2348L13.2267 39.2337L17.1781 35.2859L17.1789 35.2852C17.9803 34.4878 18.8911 33.8942 19.8735 33.4956C20.8523 33.097 21.8998 32.8984 22.9442 32.8984C22.9466 32.8984 22.9489 32.8984 22.9513 32.8985L28.2737 27.5728C26.5627 26.8974 24.7527 26.5597 22.9442 26.5597C21.0924 26.5597 19.2374 26.9138 17.4925 27.6216L17.4923 27.6217C15.7464 28.3293 14.1054 29.3983 12.6936 30.8046C12.6936 30.8047 12.6935 30.8048 12.6935 30.8048L8.74649 34.7554L8.74587 34.756C7.33692 36.1614 6.26996 37.8037 5.56221 39.5519C4.85412 41.3009 4.5 43.1522 4.5 45.0036C4.5 46.8552 4.85405 48.7105 5.56206 50.4592L30.5066 44.1291ZM30.5066 44.1291C30.9028 43.1493 31.1016 42.1041 31.1016 41.0559C31.1016 41.0542 31.1016 41.0525 31.1016 41.0507L36.4297 35.7241C37.1062 37.4394 37.4405 39.2507 37.4423 41.0559C37.4404 42.9081 37.0899 44.7596 36.3802 46.5115C35.6709 48.2557 34.6037 49.8949 33.1957 51.3083C33.1956 51.3084 33.1955 51.3084 33.1954 51.3085L29.2468 55.2517L29.2459 55.2526C27.8385 56.6653 26.1964 57.7338 24.4509 58.4377L24.4493 58.4383C22.7034 59.1494 20.8504 59.5 18.9964 59.5C17.1441 59.5 15.2912 59.1494 13.5433 58.4382L13.5418 58.4377C11.7964 57.7338 10.1542 56.6653 8.74688 55.2526L8.74578 55.2515M30.5066 44.1291L8.74578 55.2515M8.74578 55.2515C7.33697 53.8461 6.26986 52.2038 5.56209 50.4593L8.74578 55.2515ZM62.438 9.54468L62.4379 9.54435C61.7302 7.7962 60.6631 6.15378 59.254 4.74655L59.2538 4.74633C57.8462 3.3387 56.2036 2.26985 54.4558 1.56221L54.4556 1.56214C52.7085 0.854046 50.8553 0.5 49.0036 0.5C47.1519 0.5 45.2968 0.854071 43.5499 1.56203C41.8038 2.26968 40.1611 3.33867 38.7535 4.74622L34.8039 8.69578L34.8037 8.69598C33.3966 10.1015 32.3293 11.7441 31.6196 13.4925L31.6195 13.4928C30.9102 15.2368 30.5596 17.0916 30.5596 18.9459C30.5596 20.7551 30.8941 22.565 31.5707 24.2772L36.8984 18.9494C36.8984 18.9483 36.8984 18.9471 36.8984 18.9459C36.8984 17.8997 37.0971 16.8523 37.4956 15.8735M62.438 9.54468L55.3058 29.1963C53.8944 30.604 52.2537 31.6711 50.5077 32.3786L50.5067 32.379C48.7623 33.0902 46.9074 33.4443 45.0558 33.4443C43.2486 33.4443 41.4398 33.107 39.7265 32.4292L45.0524 27.1017C45.0535 27.1017 45.0547 27.1017 45.0558 27.1017C46.1019 27.1017 47.1473 26.9032 48.1259 26.5047C49.1069 26.1068 50.0224 25.5173 50.8257 24.714L54.7735 20.7662C55.5765 19.9632 56.166 19.0497 56.5641 18.0704L56.565 18.0681C56.9582 17.0869 57.1611 16.0443 57.1611 14.9964C57.1611 13.9505 56.9583 12.9058 56.5647 11.9276L56.5641 11.926C56.166 10.9466 55.5766 10.0335 54.7743 9.22737L54.7722 9.22524C53.9683 8.4272 53.054 7.83618 52.079 7.43649L52.0754 7.43502C51.0942 7.04181 50.0533 6.83887 49.0036 6.83887C47.9562 6.83887 46.9094 7.04162 45.9343 7.43553L45.9328 7.43612C44.9517 7.836 44.0389 8.42732 43.2351 9.22523L43.2337 9.22661L39.2878 13.1744L39.2874 13.1748C38.4832 13.981 37.8937 14.8942 37.4956 15.8735M62.438 9.54468C63.1459 11.2895 63.4999 13.1448 63.4999 14.9966C63.4999 16.8484 63.1458 18.7034 62.4379 20.4483L62.4378 20.4486C61.7301 22.1967 60.6631 23.8391 59.2539 25.2464L59.2536 25.2467L55.3063 29.1958L62.438 9.54468ZM37.4956 15.8735L37.9587 16.0621M37.4956 15.8735C37.4956 15.8736 37.4955 15.8737 37.4955 15.8738L37.9587 16.0621M37.9587 16.0621C38.3323 15.1429 38.8852 14.286 39.6414 13.5279L37.4021 19.1529C37.4002 19.0852 37.3984 19.0174 37.3984 18.9459C37.3984 17.9626 37.5852 16.9794 37.9587 16.0621ZM23.1294 40.871L23.1292 40.8708C21.8926 39.6342 21.8926 37.629 23.1292 36.3923L23.1293 36.3923L40.3887 19.1292C40.3887 19.1292 40.3887 19.1292 40.3887 19.1292C41.6251 17.8928 43.6322 17.8924 44.8708 19.1292C46.1107 20.3692 46.1078 22.3743 44.8708 23.6113L27.6113 40.8708L27.6108 40.8712C26.3745 42.1108 24.3679 42.1111 23.1294 40.871Z" stroke="black"/>
</g>
<defs>
<filter id="filter0_d_10_144" x="0" y="0" width="67.9999" height="68" filterUnits="userSpaceOnUse" color-interpolation-filters="sRGB">
<feFlood flood-opacity="0" result="BackgroundImageFix"/>
<feColorMatrix in="SourceAlpha" type="matrix" values="0 0 0 0 0 0 0 0 0 0 0 0 0 0 0 0 0 0 127 0" result="hardAlpha"/>
<feOffset dy="4"/>
<feGaussianBlur stdDeviation="2"/>
<feComposite in2="hardAlpha" operator="out"/>
<feColorMatrix type="matrix" values="0 0 0 0 0 0 0 0 0 0 0 0 0 0 0 0 0 0 0.25 0"/>
<feBlend mode="normal" in2="BackgroundImageFix" result="effect1_dropShadow_10_144"/>
<feBlend mode="normal" in="SourceGraphic" in2="effect1_dropShadow_10_144" result="shape"/>
</filter>
</defs>
</svg>
